<svg width="600" height="520" fill="none" xmlns="http://www.w3.org/2000/svg"><g clip-path="url(#a)"><rect width="308.335" height="306.934" rx="32" transform="rotate(74.638 72.769 264.388) skewX(.037)" fill="#F2F6FF"/><rect width="368.518" height="368.518" rx="32" transform="rotate(-73.794 333.302 104.738) skewX(.059)" fill="#E5EEFF"/><g filter="url(#b)"><path d="M316.362 97.666a4.083 4.083 0 0 1 5.052-2.775l194.218 56.224a4.058 4.058 0 0 1 2.769 5.039l-72.393 247.631a4.083 4.083 0 0 1-5.053 2.775l-194.218-56.224a4.057 4.057 0 0 1-2.768-5.039l72.393-247.63Z" fill="#fff"/><path d="m321.129 95.868 194.218 56.224a3.043 3.043 0 0 1 2.076 3.779L445.03 403.502a3.062 3.062 0 0 1-3.789 2.081L247.023 349.36a3.043 3.043 0 0 1-2.076-3.78l72.392-247.63a3.063 3.063 0 0 1 3.79-2.082Z" stroke="#D1D1D1" stroke-width="2.035"/></g><path d="M322.012 141.506a1.653 1.653 0 0 1 2.044-1.124l125.847 36.431a1.643 1.643 0 0 1 1.12 2.04 1.653 1.653 0 0 1-2.045 1.124l-125.847-36.431a1.643 1.643 0 0 1-1.119-2.04ZM336.454 285.334a1.741 1.741 0 0 1 2.154-1.184l86.633 25.079a1.73 1.73 0 0 1 1.179 2.148 1.74 1.74 0 0 1-2.153 1.184l-86.634-25.079a1.73 1.73 0 0 1-1.179-2.148ZM319.546 149.943a1.652 1.652 0 0 1 2.044-1.124l139.908 40.501a1.642 1.642 0 0 1 1.119 2.041 1.652 1.652 0 0 1-2.044 1.124l-139.908-40.502a1.641 1.641 0 0 1-1.119-2.04ZM334.019 293.665a1.392 1.392 0 0 1 1.722-.947l101.961 29.516c.736.213 1.158.983.943 1.719a1.392 1.392 0 0 1-1.722.947l-101.961-29.516a1.384 1.384 0 0 1-.943-1.719ZM316.873 159.084a1.653 1.653 0 0 1 2.045-1.124l101.24 29.308a1.643 1.643 0 0 1 1.119 2.04 1.653 1.653 0 0 1-2.044 1.124l-101.24-29.308a1.643 1.643 0 0 1-1.12-2.04ZM331.34 302.828a1.655 1.655 0 0 1 2.045-1.125l101.24 29.308a1.643 1.643 0 0 1 1.119 2.04 1.654 1.654 0 0 1-2.044 1.125l-101.24-29.308a1.643 1.643 0 0 1-1.12-2.04ZM309.062 185.805a1.652 1.652 0 0 1 2.044-1.124l164.515 47.625a1.641 1.641 0 0 1 1.119 2.04 1.652 1.652 0 0 1-2.044 1.124l-164.515-47.625a1.641 1.641 0 0 1-1.119-2.04ZM271.447 314.472a1.654 1.654 0 0 1 2.045-1.125l164.514 47.625a1.644 1.644 0 0 1 1.12 2.041 1.654 1.654 0 0 1-2.045 1.124l-164.514-47.625a1.643 1.643 0 0 1-1.12-2.04ZM306.903 193.189a1.652 1.652 0 0 1 2.044-1.124l157.485 45.59a1.642 1.642 0 0 1 1.119 2.04 1.653 1.653 0 0 1-2.044 1.124l-157.485-45.59a1.643 1.643 0 0 1-1.119-2.04ZM269.289 321.855a1.652 1.652 0 0 1 2.044-1.124l157.484 45.59a1.643 1.643 0 0 1 1.12 2.04 1.653 1.653 0 0 1-2.045 1.124l-157.484-45.59a1.64 1.64 0 0 1-1.119-2.04ZM304.744 200.573a1.653 1.653 0 0 1 2.045-1.124l160.999 46.607a1.643 1.643 0 0 1 1.12 2.04 1.653 1.653 0 0 1-2.045 1.124l-160.999-46.607a1.643 1.643 0 0 1-1.12-2.04ZM267.13 329.239a1.652 1.652 0 0 1 2.044-1.124l161 46.607a1.642 1.642 0 0 1 1.119 2.041 1.652 1.652 0 0 1-2.044 1.124l-161-46.608a1.643 1.643 0 0 1-1.119-2.04ZM302.586 207.955a1.653 1.653 0 0 1 2.045-1.124l160.999 46.608a1.642 1.642 0 0 1 1.12 2.04 1.654 1.654 0 0 1-2.045 1.124l-160.999-46.608a1.643 1.643 0 0 1-1.12-2.04ZM300.428 215.339a1.652 1.652 0 0 1 2.044-1.124l150.454 43.555a1.642 1.642 0 0 1 1.119 2.04 1.653 1.653 0 0 1-2.044 1.124l-150.454-43.555a1.641 1.641 0 0 1-1.119-2.04ZM298.269 222.722a1.655 1.655 0 0 1 2.045-1.125l150.454 43.555a1.643 1.643 0 0 1 1.119 2.04 1.652 1.652 0 0 1-2.044 1.124l-150.454-43.554a1.643 1.643 0 0 1-1.12-2.04ZM296.111 230.105a1.653 1.653 0 0 1 2.044-1.124l150.454 43.555a1.641 1.641 0 0 1 1.119 2.04 1.652 1.652 0 0 1-2.044 1.124L297.23 232.146a1.643 1.643 0 0 1-1.119-2.041ZM293.952 237.489a1.654 1.654 0 0 1 2.045-1.124L446.45 279.92a1.643 1.643 0 0 1 1.12 2.04 1.653 1.653 0 0 1-2.045 1.124l-150.453-43.555a1.643 1.643 0 0 1-1.12-2.04ZM340.792 270.497a1.652 1.652 0 0 1 2.044-1.124l69.603 20.149a1.643 1.643 0 0 1 1.119 2.04 1.654 1.654 0 0 1-2.044 1.125l-69.603-20.15a1.64 1.64 0 0 1-1.119-2.04ZM329.245 309.995a1.741 1.741 0 0 1 2.153-1.184l79.969 23.15a1.73 1.73 0 0 1 1.179 2.149 1.741 1.741 0 0 1-2.153 1.184l-79.969-23.15a1.73 1.73 0 0 1-1.179-2.149ZM338.633 277.88a1.653 1.653 0 0 1 2.045-1.124l69.602 20.149a1.643 1.643 0 0 1 1.12 2.04 1.653 1.653 0 0 1-2.045 1.124l-69.602-20.149a1.643 1.643 0 0 1-1.12-2.04Z" fill="#D1D1D1"/><rect width="175.994" height="7.154" rx="3.577" transform="rotate(16.145 -264.496 1214.443) skewX(-.151)" fill="#05F"/><g filter="url(#c)"><path d="M81.101 207.944a4.083 4.083 0 0 1 2.878-4.995l195.518-52.886a4.058 4.058 0 0 1 4.983 2.869l66.824 249.653a4.082 4.082 0 0 1-2.877 4.995l-195.518 52.887a4.059 4.059 0 0 1-4.983-2.87L81.101 207.944Z" fill="#fff"/><path d="m84.242 203.932 195.518-52.886a3.043 3.043 0 0 1 3.737 2.152l66.825 249.653a3.062 3.062 0 0 1-2.158 3.746l-195.518 52.886a3.043 3.043 0 0 1-3.737-2.152L82.084 207.678a3.063 3.063 0 0 1 2.158-3.746Z" stroke="#D1D1D1" stroke-width="2.035"/></g><path d="M108.739 242.541a1.655 1.655 0 0 1 1.166-2.025l126.681-34.267a1.645 1.645 0 0 1 2.019 1.165 1.655 1.655 0 0 1-1.165 2.025l-126.681 34.267a1.647 1.647 0 0 1-2.02-1.165ZM195.909 358.155a1.743 1.743 0 0 1 1.227-2.133l87.207-23.589a1.732 1.732 0 0 1 2.127 1.226 1.745 1.745 0 0 1-1.227 2.134l-87.208 23.589a1.733 1.733 0 0 1-2.126-1.227ZM111.016 251.047a1.656 1.656 0 0 1 1.166-2.026l140.835-38.095a1.646 1.646 0 0 1 2.019 1.164 1.656 1.656 0 0 1-1.165 2.026l-140.836 38.095a1.645 1.645 0 0 1-2.019-1.164ZM198.157 366.554a1.394 1.394 0 0 1 .982-1.706l102.636-27.763c.741-.2 1.503.239 1.701.981a1.394 1.394 0 0 1-.981 1.707l-102.637 27.762a1.384 1.384 0 0 1-1.701-.981ZM113.483 260.262a1.656 1.656 0 0 1 1.165-2.026l101.911-27.566a1.644 1.644 0 0 1 2.019 1.165 1.655 1.655 0 0 1-1.165 2.025l-101.911 27.566a1.645 1.645 0 0 1-2.019-1.164ZM200.629 375.791a1.655 1.655 0 0 1 1.166-2.025L303.706 346.2a1.645 1.645 0 0 1 2.019 1.164 1.656 1.656 0 0 1-1.166 2.026l-101.911 27.566a1.646 1.646 0 0 1-2.019-1.165ZM120.693 287.2a1.656 1.656 0 0 1 1.166-2.026l165.605-44.795a1.645 1.645 0 0 1 2.019 1.164 1.656 1.656 0 0 1-1.165 2.026l-165.605 44.795a1.645 1.645 0 0 1-2.02-1.164ZM155.413 416.91a1.656 1.656 0 0 1 1.165-2.026l165.606-44.795a1.645 1.645 0 0 1 2.019 1.165 1.655 1.655 0 0 1-1.165 2.025l-165.606 44.795a1.645 1.645 0 0 1-2.019-1.164ZM122.686 294.643a1.655 1.655 0 0 1 1.165-2.025l158.528-42.881a1.646 1.646 0 0 1 2.02 1.164 1.656 1.656 0 0 1-1.166 2.026l-158.528 42.881a1.645 1.645 0 0 1-2.019-1.165ZM157.405 424.354a1.656 1.656 0 0 1 1.166-2.026l158.528-42.881a1.645 1.645 0 0 1 2.019 1.165 1.655 1.655 0 0 1-1.165 2.025l-158.528 42.881a1.645 1.645 0 0 1-2.02-1.164ZM124.678 302.087a1.656 1.656 0 0 1 1.166-2.026l162.066-43.837a1.645 1.645 0 0 1 2.02 1.164 1.656 1.656 0 0 1-1.166 2.026l-162.067 43.837a1.645 1.645 0 0 1-2.019-1.164ZM159.398 431.797a1.655 1.655 0 0 1 1.165-2.025l162.067-43.838a1.644 1.644 0 0 1 2.019 1.164 1.656 1.656 0 0 1-1.165 2.026l-162.067 43.838a1.645 1.645 0 0 1-2.019-1.165ZM126.67 309.53a1.656 1.656 0 0 1 1.166-2.026l162.066-43.838a1.646 1.646 0 0 1 2.02 1.164 1.656 1.656 0 0 1-1.166 2.026L128.69 310.694a1.645 1.645 0 0 1-2.02-1.164ZM128.663 316.973a1.655 1.655 0 0 1 1.165-2.025l151.451-40.967a1.646 1.646 0 0 1 2.02 1.165 1.655 1.655 0 0 1-1.166 2.025l-151.451 40.967a1.646 1.646 0 0 1-2.019-1.165ZM130.655 324.416a1.656 1.656 0 0 1 1.165-2.026l151.451-40.966a1.645 1.645 0 0 1 2.02 1.164 1.656 1.656 0 0 1-1.166 2.026L132.674 325.58a1.645 1.645 0 0 1-2.019-1.164ZM132.647 331.86a1.656 1.656 0 0 1 1.166-2.026l151.451-40.966a1.645 1.645 0 0 1 2.019 1.164 1.654 1.654 0 0 1-1.165 2.025l-151.451 40.967a1.646 1.646 0 0 1-2.02-1.164ZM134.64 339.303a1.654 1.654 0 0 1 1.165-2.025l151.451-40.967a1.646 1.646 0 0 1 2.02 1.165 1.656 1.656 0 0 1-1.166 2.025l-151.451 40.966a1.645 1.645 0 0 1-2.019-1.164ZM191.905 343.199a1.656 1.656 0 0 1 1.166-2.026l70.063-18.952a1.646 1.646 0 0 1 2.02 1.165 1.655 1.655 0 0 1-1.166 2.025l-70.064 18.952a1.645 1.645 0 0 1-2.019-1.164ZM202.563 383.017a1.744 1.744 0 0 1 1.228-2.134l80.499-21.774a1.733 1.733 0 0 1 2.127 1.226 1.745 1.745 0 0 1-1.228 2.134l-80.499 21.774a1.733 1.733 0 0 1-2.127-1.226ZM193.897 350.641a1.656 1.656 0 0 1 1.166-2.026l70.063-18.951a1.645 1.645 0 0 1 2.02 1.164 1.656 1.656 0 0 1-1.166 2.026l-70.063 18.951a1.645 1.645 0 0 1-2.02-1.164Z" fill="#D1D1D1"/><rect width="176.289" height="7.166" rx="3.583" transform="rotate(-15.136 889.267 -275.569) skewX(-.151)" fill="#05F"/><path fill-rule="evenodd" clip-rule="evenodd" d="M206.765 47.167a2.883 2.883 0 1 0 1.361 5.602 232.37 232.37 0 0 0 4.39-1.101c.884-.233 1.849-.304 2.901-.222a2.883 2.883 0 1 0 .446-5.748c-1.577-.123-3.203-.03-4.817.395-1.404.37-2.83.721-4.281 1.074Zm-11.252 9.107a2.883 2.883 0 0 0-1.96-5.422 50.462 50.462 0 0 0-4.381 1.81 59.369 59.369 0 0 0-4.109 2.147 2.883 2.883 0 0 0 2.861 5.005 53.623 53.623 0 0 1 3.709-1.939 44.504 44.504 0 0 1 3.88-1.601Zm-18.012 10.842a2.883 2.883 0 1 0-3.688-4.431 86.393 86.393 0 0 0-6.702 6.201 2.882 2.882 0 1 0 4.137 4.016 80.364 80.364 0 0 1 6.253-5.786Zm50.42-17.316a2.882 2.882 0 1 0-2.646 5.121c.766.397 1.489.783 2.202 1.163l.001.001c.405.216.806.43 1.211.644a39.578 39.578 0 0 1 2.968 1.738 2.883 2.883 0 1 0 3.126-4.844 45.096 45.096 0 0 0-3.402-1.992c-.356-.188-.736-.39-1.13-.601-.74-.395-1.534-.819-2.33-1.23ZM163.33 82.754a2.883 2.883 0 1 0-4.861-3.099 47.54 47.54 0 0 0-2.333 4.074 44.326 44.326 0 0 0-1.809 4.062 2.882 2.882 0 1 0 5.378 2.078 38.525 38.525 0 0 1 1.574-3.535 42.11 42.11 0 0 1 2.051-3.58Zm80.458-21.638a2.883 2.883 0 0 0-4.152 4c1.62 1.682 3.145 3.478 4.613 5.366a2.883 2.883 0 0 0 4.551-3.54c-1.566-2.013-3.223-3.97-5.012-5.826Zm-86.489 39.996a2.883 2.883 0 0 0-5.759-.265 38.152 38.152 0 0 0 .633 8.954 2.883 2.883 0 0 0 1.846 2.166 2.884 2.884 0 0 0 4.319 3.716 38.326 38.326 0 0 1 2.356-1.855c1.209-.879 2.409-1.58 3.563-2.095a2.882 2.882 0 0 0-2.347-5.266 25.151 25.151 0 0 0-4.063 2.312l-.012-.064a32.373 32.373 0 0 1-.536-7.603Zm98.017-24.946a2.883 2.883 0 0 0-4.808 3.181c.673 1.017 1.343 2.041 2.019 3.074.323.492.77.854 1.273 1.07-.411.04-.834.021-1.256-.062-4.709-.93-8.652-.957-11.404-.64-1.526.177-2.375 1.713-1.941 3.186.434 1.472 1.996 2.355 3.526 2.252 3.311-.223 8.905.117 15.72 2.671.846.318 1.797.21 2.554-.286a2.795 2.795 0 0 0 1.266-2.22c.07-1.706.372-4.706 1.056-7.974.478-2.287 1.125-4.611 1.961-6.678.584-1.445.099-3.168-1.267-3.918-1.343-.736-3.037-.258-3.646 1.147-1.174 2.706-1.992 5.662-2.555 8.354-.044.214-.088.426-.13.638a2.875 2.875 0 0 0-.333-.697c-.675-1.031-1.353-2.067-2.035-3.098Zm-77.185 34.037a2.882 2.882 0 1 0-4.834 3.142c.562.865 1.076 2.014 1.473 3.517.216.821.36 1.616.431 2.381a2.884 2.884 0 0 0 5.741-.537 20.526 20.526 0 0 0-.598-3.314c-.523-1.982-1.258-3.72-2.213-5.189Zm-25.849 12.071a2.882 2.882 0 1 0-4.682-3.364 47.913 47.913 0 0 0-3.578 5.842 2.883 2.883 0 1 0 5.113 2.664 42.174 42.174 0 0 1 3.147-5.142Zm9.694-2.981a2.883 2.883 0 0 0-4.899 3.04 38.558 38.558 0 0 0 2.591 3.672l.077.097c.535.672 1.217 1.529 1.985 2.401a2.882 2.882 0 1 0 4.327-3.81c-.671-.761-1.274-1.519-1.82-2.205l-.059-.073a32.837 32.837 0 0 1-2.202-3.122Zm-16.402 16.624a2.882 2.882 0 1 0-5.46-1.85 94.834 94.834 0 0 0-1.01 3.164 86.505 86.505 0 0 0-1.102 4.004 2.882 2.882 0 1 0 5.593 1.397 82.038 82.038 0 0 1 1.029-3.739 90.98 90.98 0 0 1 .95-2.976Zm32.96-7.071a2.882 2.882 0 0 0-4.827-3.152 11.156 11.156 0 0 1-1.456 1.779c-.526.527-.908.662-1.133.703a2.882 2.882 0 0 0 1.035 5.672c1.559-.285 2.962-1.084 4.177-2.301a16.896 16.896 0 0 0 2.204-2.701Zm-36.941 25.228a2.882 2.882 0 1 0-5.737-.568 74.771 74.771 0 0 0-.296 4.13c-.096 1.472.146 3.34.614 5.324a2.882 2.882 0 1 0 5.611-1.325c-.411-1.742-.517-2.987-.471-3.641l.004-.075c.055-1.273.147-2.557.275-3.845Zm5.247 19.117a2.882 2.882 0 1 0-4.835 3.139 41.446 41.446 0 0 0 2.894 3.94 2.882 2.882 0 1 0 4.435-3.684 35.83 35.83 0 0 1-2.494-3.395Z" fill="#3D99F5"/><path fill-rule="evenodd" clip-rule="evenodd" d="M520.415 413.153a2.883 2.883 0 0 1-5.115-2.659 230.129 230.129 0 0 1 2.118-4.001c.437-.803.736-1.723.908-2.763a2.884 2.884 0 0 1 5.688.939c-.257 1.561-.735 3.117-1.534 4.583a222.674 222.674 0 0 0-2.065 3.901Zm-11.53 8.752a2.882 2.882 0 1 1 4.796 3.198 50.517 50.517 0 0 1-2.802 3.822 59.446 59.446 0 0 1-3.067 3.477 2.883 2.883 0 1 1-4.177-3.974 52.963 52.963 0 0 0 2.768-3.138 44.359 44.359 0 0 0 2.482-3.385Zm-14.83 14.902a2.882 2.882 0 1 1 3.423 4.639 86.302 86.302 0 0 1-7.623 5.027 2.883 2.883 0 1 1-2.911-4.976 80.566 80.566 0 0 0 7.111-4.69Zm28.856-44.827a2.883 2.883 0 0 1-5.606 1.347c-.202-.839-.404-1.633-.603-2.417l-.001-.001c-.113-.444-.225-.885-.336-1.329a39.369 39.369 0 0 0-.979-3.297 2.883 2.883 0 0 1 5.45-1.88 44.889 44.889 0 0 1 1.122 3.78l.314 1.241c.207.813.429 1.685.639 2.556Zm-47.425 54.853a2.883 2.883 0 0 1 1.848 5.461 47.484 47.484 0 0 1-4.513 1.292 44.34 44.34 0 0 1-4.377.787 2.882 2.882 0 1 1-.733-5.718 38.757 38.757 0 0 0 3.808-.685c1.29-.299 2.616-.68 3.967-1.137Zm40.224-72.963a2.882 2.882 0 1 1-4.875 3.076c-1.246-1.975-2.626-3.884-4.109-5.761a2.882 2.882 0 1 1 4.524-3.573c1.581 2.002 3.085 4.078 4.46 6.258Zm-59.492 74.436a2.882 2.882 0 1 1-1.117 5.656 38.16 38.16 0 0 1-8.544-2.754 2.88 2.88 0 0 1-1.663-2.309 2.884 2.884 0 0 1-2.577-5.082 38.51 38.51 0 0 0 2.364-1.844c1.143-.964 2.11-1.962 2.885-2.96a2.883 2.883 0 0 1 4.553 3.537 25.169 25.169 0 0 1-3.215 3.393l.06.027a32.422 32.422 0 0 0 7.254 2.336Zm47.631-89.224a2.883 2.883 0 0 1-4.238 3.909c-.826-.897-1.661-1.792-2.502-2.695a2.876 2.876 0 0 1-.735-1.491c-.137.39-.22.804-.24 1.234-.221 4.795-1.137 8.63-2.102 11.227-.536 1.44-2.231 1.897-3.557 1.124-1.326-.773-1.811-2.501-1.345-3.962 1.007-3.162 2.013-8.676 1.16-15.903a2.844 2.844 0 0 1 .888-2.412 2.796 2.796 0 0 1 2.457-.699c1.674.34 4.659.762 7.996.879 2.335.081 4.747.009 6.954-.31 1.542-.222 3.1.66 3.501 2.166.395 1.48-.474 3.01-1.984 3.267-2.908.494-5.974.582-8.722.486a67.996 67.996 0 0 1-.651-.027c.216.133.417.297.598.491.84.901 1.684 1.807 2.522 2.716Zm-51.484 66.824a2.883 2.883 0 1 1-4.205 3.944c-.706-.753-1.699-1.527-3.064-2.27a14.656 14.656 0 0 0-2.209-.988 2.883 2.883 0 0 1 1.892-5.446c1.051.365 2.077.827 3.076 1.371 1.8.981 3.311 2.111 4.51 3.389Zm-17.894 22.218a2.883 2.883 0 0 1 2.148 5.35 48.017 48.017 0 0 1-6.527 2.08 2.883 2.883 0 0 1-1.366-5.601 42.24 42.24 0 0 0 5.745-1.829Zm5.21-8.701a2.882 2.882 0 1 1-4.123 4.03 38.385 38.385 0 0 1-2.947-3.392l-.076-.098a61.844 61.844 0 0 1-1.857-2.5 2.883 2.883 0 1 1 4.733-3.292c.579.833 1.171 1.599 1.707 2.294l.057.074a32.819 32.819 0 0 0 2.506 2.884Zm-20.06 11.958a2.882 2.882 0 1 1 .493 5.744 97.663 97.663 0 0 1-3.314.225c-1.367.07-2.753.108-4.151.114a2.882 2.882 0 1 1-.021-5.765 81.06 81.06 0 0 0 3.876-.107 91.364 91.364 0 0 0 3.117-.211Zm14.736-30.318a2.883 2.883 0 1 1 1.909 5.44c-.679.238-1.371.563-2.075.988-.637.386-.86.724-.954.933a2.882 2.882 0 1 1-5.26-2.359c.648-1.446 1.76-2.618 3.231-3.507a16.905 16.905 0 0 1 3.149-1.495Zm-33.318 29.848a2.882 2.882 0 1 1-.819 5.706 75.196 75.196 0 0 1-4.081-.698c-1.452-.259-3.209-.94-5.024-1.868a2.883 2.883 0 0 1 2.627-5.132c1.593.815 2.777 1.214 3.423 1.326l.074.014c1.249.251 2.518.468 3.8.652Zm-17.312-9.661a2.882 2.882 0 1 1-4.203 3.946 41.667 41.667 0 0 1-3.135-3.752 2.883 2.883 0 0 1 4.636-3.426 36.138 36.138 0 0 0 2.702 3.232Z" fill="#FF5975"/><rect x="81" y="292" width="120" height="120" rx="60" fill="#FFE299"/><path d="m137.376 353.88-1.024 3.84h8.896l-.96-3.84a150.068 150.068 0 0 1-1.728-6.656 389.838 389.838 0 0 0-1.664-6.784h-.256c-.512 2.219-1.045 4.501-1.6 6.848a113.675 113.675 0 0 1-1.664 6.592ZM122.272 375l13.056-41.728h11.328L159.712 375h-9.984l-2.56-9.92h-12.736l-2.56 9.92h-9.6Z" fill="#1A1A1A"/><rect x="378" y="45" width="120" height="120" rx="60" fill="#9FE6E8"/><path d="m449.328 80 5.952-3.328c3.904 4.224 8.832 10.048 11.072 13.952l-6.4 3.904c-2.048-3.904-6.72-10.048-10.624-14.528Zm-14.72 11.904 7.36 1.92c-2.304 6.016-6.144 12.288-9.792 16.192-1.408-1.216-4.416-3.328-6.208-4.288 3.584-3.392 6.784-8.768 8.64-13.824Zm2.176 5.568h28.16v6.592H434.16l2.624-6.592Zm-10.176 12.608h40.768v6.592h-40.768v-6.592Zm16.64-9.792h7.488v8.896c0 9.024-2.944 19.328-22.144 24.576-.64-1.728-2.432-4.864-3.648-6.272 16.32-4.288 18.304-12.096 18.304-18.496v-8.704Zm7.104 13.44c2.752 7.104 8.64 11.776 18.24 13.44-1.6 1.536-3.648 4.544-4.672 6.592-10.752-2.688-16.64-8.96-20.032-18.816l6.464-1.216Zm-19.456-20.224c-.384-1.536-1.6-5.056-2.432-7.104 1.216-.256 2.368-1.152 3.712-2.496 1.344-1.216 5.504-5.824 8.128-10.624l8 2.304c-3.776 5.376-8.832 10.88-13.12 14.208v.128s-4.288 2.24-4.288 3.584Zm0 0-.128-5.632 3.968-2.368 24.512-1.28c.32 2.048.896 4.864 1.344 6.4-23.872 1.728-27.264 1.984-29.696 2.88Zm-18.944-14.72 4.992-4.672c3.456 2.88 8.064 6.976 10.304 9.728L422 89.152c-1.984-2.88-6.592-7.232-10.048-10.368Zm4.096 53.952-1.664-6.848 1.536-2.368 11.2-8.32c.576 2.112 1.728 5.12 2.56 6.656-10.496 8-12.544 9.472-13.632 10.88Zm-7.872-39.232H420.4v7.36h-12.224v-7.36Zm7.872 39.296c-.64-1.472-2.496-4.096-3.712-5.12 1.344-1.152 3.2-3.52 3.2-6.912V93.504h6.976V124.8s-6.464 5.376-6.464 8Z" fill="#1A1A1A"/><rect x="438" y="131" width="120" height="120" rx="60" fill="#C9C0FA"/><path d="M486.611 214v12.032h-8.384l-.832-14.08v-5.888h1.92c.469-.171.938-.533 1.408-1.088.512-.597 1.024-1.451 1.536-2.56s1.024-2.539 1.536-4.288c.512-1.792 1.002-3.947 1.472-6.464.341-1.835.64-3.499.896-4.992.298-1.493.576-2.965.832-4.416.256-1.493.512-3.029.768-4.608.298-1.579.618-3.371.96-5.376h24.768v33.792h5.12v5.888l-.832 14.08h-8.384V214h-22.784Zm7.104-21.12c-.555 2.816-1.174 5.312-1.856 7.488-.683 2.176-1.515 4.075-2.496 5.696h14.72v-25.856h-8.064a509.991 509.991 0 0 0-.576 3.392l-.512 2.944c-.171.939-.363 1.92-.576 2.944-.171.981-.384 2.112-.64 3.392Z" fill="#1A1A1A"/><rect x="189" y="367" width="120" height="120" rx="60" fill="#FFBDC8"/><path d="M248.744 398.544c-.384 1.216-.64 2.368-.896 3.392-1.216 5.952-2.304 15.168-2.304 23.104 0 10.112 1.856 17.28 3.968 23.744l-7.36 2.176c-1.92-5.76-3.776-15.232-3.776-24.64 0-8.384 1.152-17.792 1.856-24.128.128-1.28.256-2.752.192-3.904l8.32.256Zm-11.456 7.04c12.16 0 21.824-.576 31.616-2.944l.064 7.36c-8.768 1.6-22.208 2.56-31.872 2.56-3.392 0-8.384-.32-11.392-.448l-.192-7.36c2.304.32 7.872.832 11.776.832Zm27.648 9.408c-.512 1.152-1.472 4.096-1.92 5.44-3.648 11.52-10.24 20.16-16.32 24.64-4.16 3.072-9.728 5.888-15.296 5.888-4.672 0-8.576-2.816-8.576-9.344 0-9.024 8.064-18.432 18.24-22.144 4.224-1.536 9.472-2.496 14.272-2.496 11.968 0 20.8 6.912 20.8 16.896 0 9.088-5.376 17.856-21.056 20.288l-4.288-6.784c12.352-1.344 17.408-7.552 17.408-13.888 0-5.44-4.672-10.048-13.312-10.048-5.824 0-10.432 1.664-13.568 3.072-6.4 3.008-10.944 9.152-10.944 13.44 0 2.112.832 3.2 2.944 3.2 3.008 0 7.296-2.112 11.2-5.76 4.672-4.288 9.024-9.984 11.584-18.816.448-1.344.896-4.096.96-5.504l7.872 1.92Z" fill="#1A1A1A"/><path fill-rule="evenodd" clip-rule="evenodd" d="M48.71 66.14a2.426 2.426 0 0 1 3.429-3.43l5.143 5.145a2.426 2.426 0 0 1-3.429 3.43L48.71 66.14Zm12.003 12.005a2.426 2.426 0 0 1 3.429-3.43l5.143 5.145a2.426 2.426 0 0 1-3.429 3.43l-5.143-5.145ZM48.71 83.29a2.424 2.424 0 0 0 3.429 0l5.143-5.145a2.426 2.426 0 0 0-3.429-3.43L48.71 79.86a2.426 2.426 0 0 0 0 3.43Zm15.437-12.004a2.424 2.424 0 1 1-3.43-3.43l5.144-5.145a2.424 2.424 0 1 1 3.429 3.43l-5.143 5.145ZM558.71 424.14a2.426 2.426 0 0 1 3.429-3.43l5.143 5.145a2.426 2.426 0 0 1-3.429 3.43l-5.143-5.145Zm12.003 12.005a2.426 2.426 0 0 1 3.429-3.43l5.143 5.145a2.426 2.426 0 0 1-3.429 3.43l-5.143-5.145Zm-12.003 5.145a2.424 2.424 0 0 0 3.429 0l5.143-5.145a2.426 2.426 0 0 0-3.429-3.43l-5.143 5.145a2.426 2.426 0 0 0 0 3.43Zm15.437-12.004a2.424 2.424 0 1 1-3.429-3.43l5.143-5.145a2.424 2.424 0 1 1 3.429 3.43l-5.143 5.145Z" fill="#3D99F5"/><path fill-rule="evenodd" clip-rule="evenodd" d="M102 116c0 6.075-4.925 11-11 11s-11-4.925-11-11 4.925-11 11-11 11 4.925 11 11Zm-16.5 0a5.5 5.5 0 1 0 11 0 5.5 5.5 0 0 0-11 0ZM552 473c0 6.075-4.925 11-11 11s-11-4.925-11-11 4.925-11 11-11 11 4.925 11 11Zm-16.499 0a5.5 5.5 0 1 0 11 0 5.5 5.5 0 0 0-11 0Z" fill="#FF5975"/><rect x="277" y="327" width="104" height="104" rx="52" fill="#0048D9"/><path fill-rule="evenodd" clip-rule="evenodd" d="M329 353c14.359 0 26 11.641 26 26s-11.641 26-26 26-26-11.641-26-26 11.641-26 26-26Zm-1.238 37.141-9.904.003c1.319 4.135 3.357 8.109 6.058 11.826 1.248.278 2.533.454 3.846.522v-12.351Zm12.38.003-9.907-.003.003 12.351a23.49 23.49 0 0 0 3.845-.519c2.702-3.72 4.74-7.694 6.059-11.829Zm9.581-.001-7.403-.001c-1.031 3.725-2.563 7.303-4.535 10.688a23.625 23.625 0 0 0 11.938-10.687Zm-34.043-.001-7.403.001a23.617 23.617 0 0 0 11.942 10.687c-1.976-3.385-3.508-6.963-4.539-10.688Zm-1.515-9.906-8.657.002a23.433 23.433 0 0 0 1.616 7.429l7.949-.001a42.237 42.237 0 0 1-.908-7.43Zm27.722.002-11.652-.003v7.43l10.606.003a36.835 36.835 0 0 0 1.046-7.43Zm10.605 0-8.657-.002a42.237 42.237 0 0 1-.908 7.43l7.949.001a23.433 23.433 0 0 0 1.616-7.429Zm-24.73-.003-11.649.003a36.835 36.835 0 0 0 1.046 7.43l10.603-.003v-7.43Zm-12.475-11.14h-7.63a23.405 23.405 0 0 0-2.149 8.667l8.649.001a42.152 42.152 0 0 1 1.13-8.668Zm25.308 0-10.36-.001v8.668h11.661l-.002-.103a36.96 36.96 0 0 0-1.299-8.564Zm9.748 0h-7.63a42.152 42.152 0 0 1 1.13 8.668l8.649-.001a23.405 23.405 0 0 0-2.149-8.667Zm-22.581-.001-10.357.001a36.918 36.918 0 0 0-1.318 9.76l.014-1.093h11.661v-8.668Zm-7.766-11.835-.666.29a23.618 23.618 0 0 0-10.335 9.069l6.959.001a45.289 45.289 0 0 1 4.042-9.36Zm10.242-1.751-.003 11.109h9.591c-1.275-3.668-3.12-7.202-5.494-10.533a23.503 23.503 0 0 0-4.094-.576Zm7.762 1.751.529.946a45.03 45.03 0 0 1 3.517 8.414l6.959-.001A23.615 23.615 0 0 0 338 357.259Zm-13.647-1.324-.685.149c-2.374 3.331-4.219 6.865-5.494 10.533h9.588v-11.109c-1.161.06-2.299.205-3.409.427Z" fill="#fff"/></g><defs><filter id="b" x="242.731" y="93.656" width="276.907" height="314.14" filterUnits="userSpaceOnUse" color-interpolation-filters="sRGB"><feFlood flood-opacity="0" result="BackgroundImageFix"/><feColorMatrix in="SourceAlpha" values="0 0 0 0 0 0 0 0 0 0 0 0 0 0 0 0 0 0 127 0" result="hardAlpha"/><feOffset/><feGaussianBlur stdDeviation=".537"/><feColorMatrix values="0 0 0 0 0.101961 0 0 0 0 0.101961 0 0 0 0 0.101961 0 0 0 0.2 0"/><feBlend in2="BackgroundImageFix" result="effect1_dropShadow_776_6338"/><feBlend in="SourceGraphic" in2="effect1_dropShadow_776_6338" result="shape"/></filter><filter id="c" x="79.887" y="148.846" width="272.63" height="312.836" filterUnits="userSpaceOnUse" color-interpolation-filters="sRGB"><feFlood flood-opacity="0" result="BackgroundImageFix"/><feColorMatrix in="SourceAlpha" values="0 0 0 0 0 0 0 0 0 0 0 0 0 0 0 0 0 0 127 0" result="hardAlpha"/><feOffset/><feGaussianBlur stdDeviation=".537"/><feColorMatrix values="0 0 0 0 0.101961 0 0 0 0 0.101961 0 0 0 0 0.101961 0 0 0 0.2 0"/><feBlend in2="BackgroundImageFix" result="effect1_dropShadow_776_6338"/><feBlend in="SourceGraphic" in2="effect1_dropShadow_776_6338" result="shape"/></filter><clipPath id="a"><path fill="#fff" d="M0 0h600v520H0z"/></clipPath></defs></svg>